<svg xmlns="http://www.w3.org/2000/svg" viewBox="0 0 60 30">
  <defs>
    <style>
      .cls-1 {
        fill: #8c3a57;
        stroke: #f7a9ae;
        stroke-miterlimit: 10;
        stroke-width: 0.25px;
      }
    </style>
  </defs>
  <title>logo</title>
  <g id="Layer_11" data-name="Layer 11">
    <g>
      <path class="cls-1" d="M31.67,14.1a1.17,1.17,0,0,1,.75.22.75.75,0,0,1,.22.73.82.82,0,0,1-.4.66,1.53,1.53,0,0,1-.85.24H29.91l-.53,3.12h1.41a1.07,1.07,0,0,1,.76.24.86.86,0,0,1,.25.64.85.85,0,0,1-.35.66,1.35,1.35,0,0,1-.94.31H28.92l-.72,4.2a1.48,1.48,0,0,1-.39.79,1,1,0,0,1-.8.31.82.82,0,0,1-.72-.35,1.12,1.12,0,0,1-.14-.84l.68-4.11H23.44l-.7,4.2a1.41,1.41,0,0,1-.41.78,1,1,0,0,1-.78.32.89.89,0,0,1-.72-.29,1.1,1.1,0,0,1-.16-.9l.71-4.11H19.86a1.13,1.13,0,0,1-.74-.23.69.69,0,0,1-.25-.61,1,1,0,0,1,.38-.75,1.47,1.47,0,0,1,.89-.26h1.7l.5-3.12H20.72a1.26,1.26,0,0,1-.73-.2.7.7,0,0,1-.29-.62.89.89,0,0,1,.36-.78A1.56,1.56,0,0,1,21,14.1h1.78l.73-4a1.63,1.63,0,0,1,.4-.81A1.07,1.07,0,0,1,24.7,9a.85.85,0,0,1,.73.33,1,1,0,0,1,.15.86l-.71,3.89h3.39l.73-4a1.52,1.52,0,0,1,.39-.78,1,1,0,0,1,.8-.32.83.83,0,0,1,.73.33,1,1,0,0,1,.12.86l-.68,3.89Zm-4.38,5L27.82,16H24.43l-.5,3.12Z"/>
      <path class="cls-1" d="M39.11,26.22a1,1,0,0,1-.77-.33A1.07,1.07,0,0,1,38,25.1V11.68l-1.61.68a1.9,1.9,0,0,1-.7.16,1.17,1.17,0,0,1-.81-.31,1.06,1.06,0,0,1-.31-.79,1.16,1.16,0,0,1,.17-.64,1,1,0,0,1,.55-.42l3.43-1.23L39,9.06l.2,0a1.07,1.07,0,0,1,.81.32,1.19,1.19,0,0,1,.29.82V25.1a1.07,1.07,0,0,1-.33.79A1.1,1.1,0,0,1,39.11,26.22Z"/>
    </g>
  </g>
</svg>
