<svg xmlns="http://www.w3.org/2000/svg" viewBox="0 0 60 30">
  <defs>
    <style>
      .cls-1 {
        fill: #8c3a57;
        stroke: #f7a9ae;
        stroke-miterlimit: 10;
        stroke-width: 0.25px;
      }
    </style>
  </defs>
  <title>logo</title>
  <g id="Layer_12" data-name="Layer 12">
    <g>
      <path class="cls-1" d="M11.08,26.07a5.55,5.55,0,0,1-2.85-.74,5.43,5.43,0,0,1-2-2,5.67,5.67,0,0,1-.74-2.86,1.11,1.11,0,0,1,.31-.81,1.07,1.07,0,0,1,.79-.32,1.16,1.16,0,0,1,.82.32,1.09,1.09,0,0,1,.33.81,3.3,3.3,0,0,0,.44,1.71,3.1,3.1,0,0,0,1.2,1.21,3.34,3.34,0,0,0,1.7.44,3.42,3.42,0,0,0,1.73-.44A3.24,3.24,0,0,0,14,22.17a3.58,3.58,0,0,0,0-3.44,3.29,3.29,0,0,0-1.2-1.2,3.42,3.42,0,0,0-1.73-.44H7.41a1.08,1.08,0,0,1-.8-.32,1.12,1.12,0,0,1-.3-.8V10a1.18,1.18,0,0,1,.3-.82,1,1,0,0,1,.8-.33h7.34a1.1,1.1,0,0,1,.8.34,1.13,1.13,0,0,1,.33.81,1.11,1.11,0,0,1-1.13,1.1H8.53v3.72h2.55a5.6,5.6,0,0,1,2.87.73,5.48,5.48,0,0,1,2,2,5.94,5.94,0,0,1,0,5.74,5.43,5.43,0,0,1-2,2A5.6,5.6,0,0,1,11.08,26.07Z"/>
      <path class="cls-1" d="M20.47,26.42A1.44,1.44,0,0,1,19.41,26a1.52,1.52,0,0,1,0-2.16,1.5,1.5,0,0,1,2.14,0,1.55,1.55,0,0,1,0,2.16A1.44,1.44,0,0,1,20.47,26.42Z"/>
      <path class="cls-1" d="M25.75,26.07a1.06,1.06,0,0,1-.77-.33,1.09,1.09,0,0,1-.33-.8,1,1,0,0,1,.06-.34c0-.11.08-.23.14-.36l6.32-13.11H24.48a1.08,1.08,0,0,1-.8-.32,1.06,1.06,0,0,1-.32-.8,1.09,1.09,0,0,1,1.12-1.13h8.38a1.07,1.07,0,0,1,.79.33A1.09,1.09,0,0,1,34,10a.92.92,0,0,1,0,.29c0,.1-.07.2-.11.3l-7,14.85A1.14,1.14,0,0,1,25.75,26.07Z"/>
      <path class="cls-1" d="M38.21,26.09a1.12,1.12,0,0,1-.81-.32,1.09,1.09,0,0,1-.32-.8V15.18a1.11,1.11,0,0,1,.32-.82,1.15,1.15,0,0,1,.81-.31,1.13,1.13,0,0,1,.81.31,1.1,1.1,0,0,1,.31.82V25a1.09,1.09,0,0,1-.31.8A1.1,1.1,0,0,1,38.21,26.09Zm7.34,0A1.09,1.09,0,0,1,44.43,25v-6.3a2.77,2.77,0,0,0-.68-2.05A2.41,2.41,0,0,0,42,16a2.47,2.47,0,0,0-1.89.79,2.82,2.82,0,0,0-.75,2H37.94a5.38,5.38,0,0,1,.57-2.52,4.27,4.27,0,0,1,1.59-1.7,4.34,4.34,0,0,1,2.31-.62,4.51,4.51,0,0,1,2.22.55,3.82,3.82,0,0,1,1.51,1.62,5.65,5.65,0,0,1,.54,2.58V25a1.13,1.13,0,0,1-.31.8A1.11,1.11,0,0,1,45.55,26.09Zm7.33,0a1.09,1.09,0,0,1-.8-.32,1.06,1.06,0,0,1-.32-.8v-6.3a2.77,2.77,0,0,0-.68-2.05,2.68,2.68,0,0,0-3.67.12,2.85,2.85,0,0,0-.73,2H44.85a5.06,5.06,0,0,1,.62-2.52,4.39,4.39,0,0,1,1.72-1.7,5.16,5.16,0,0,1,2.54-.62,4.52,4.52,0,0,1,2.23.55,3.8,3.8,0,0,1,1.5,1.62A5.65,5.65,0,0,1,54,18.67V25a1.09,1.09,0,0,1-.31.8A1.07,1.07,0,0,1,52.88,26.09Z"/>
    </g>
  </g>
</svg>
