<svg xmlns="http://www.w3.org/2000/svg" viewBox="0 0 60 30">
  <defs>
    <style>
      .cls-1 {
        fill: #8c3a57;
        stroke: #f7a9ae;
        stroke-miterlimit: 10;
        stroke-width: 0.25px;
      }
    </style>
  </defs>
  <title>logo</title>
  <g id="Layer_13" data-name="Layer 13">
    <g>
      <path class="cls-1" d="M14.36,26.48a1,1,0,0,1-.77-.33,1.07,1.07,0,0,1-.33-.79V11.94l-1.61.68a1.72,1.72,0,0,1-.7.16,1.17,1.17,0,0,1-.81-.31,1.06,1.06,0,0,1-.31-.79A1.16,1.16,0,0,1,10,11a1,1,0,0,1,.55-.42L14,9.39l.22-.07.2,0a1.07,1.07,0,0,1,.81.32,1.2,1.2,0,0,1,.29.83V25.36a1.07,1.07,0,0,1-.33.79A1.1,1.1,0,0,1,14.36,26.48Z"/>
      <path class="cls-1" d="M24,26.48a5.29,5.29,0,0,1-2.69-.67A4.68,4.68,0,0,1,19.46,24a5.39,5.39,0,0,1-.66-2.69,5.48,5.48,0,0,1,.66-2.72A4.81,4.81,0,0,1,21.3,16.7a5.74,5.74,0,0,1,5.38,0,4.9,4.9,0,0,1,1.82,1.85,5.48,5.48,0,0,1,.66,2.72A5.39,5.39,0,0,1,28.5,24a4.76,4.76,0,0,1-1.82,1.85A5.27,5.27,0,0,1,24,26.48Zm-4.46-8,5.1-8.51a1.18,1.18,0,0,1,1-.62,1.11,1.11,0,0,1,.77.27,1.07,1.07,0,0,1,.39.66,1.1,1.1,0,0,1-.17.79l-3.12,5.19ZM24,24.5a3.14,3.14,0,0,0,1.6-.4A3,3,0,0,0,26.66,23a3.53,3.53,0,0,0,.39-1.68,3.49,3.49,0,0,0-.39-1.69,3,3,0,0,0-1.09-1.15A3.06,3.06,0,0,0,24,18a3,3,0,0,0-1.59.42,2.85,2.85,0,0,0-1.08,1.15,3.49,3.49,0,0,0-.39,1.69A3.53,3.53,0,0,0,21.3,23a2.79,2.79,0,0,0,1.08,1.15A3.08,3.08,0,0,0,24,24.5Z"/>
      <path class="cls-1" d="M33.21,26.51a1.09,1.09,0,0,1-.8-.32,1.12,1.12,0,0,1-.32-.81V15.59a1.08,1.08,0,0,1,1.12-1.12,1,1,0,0,1,1.12,1.12v9.79a1.14,1.14,0,0,1-.3.81A1.11,1.11,0,0,1,33.21,26.51Zm7.35,0a1.09,1.09,0,0,1-.8-.32,1.08,1.08,0,0,1-.32-.81V19.09A2.81,2.81,0,0,0,38.76,17a2.68,2.68,0,0,0-3.68.13,2.8,2.8,0,0,0-.75,2H33a5.38,5.38,0,0,1,.57-2.52A4.25,4.25,0,0,1,35.1,15a4.3,4.3,0,0,1,2.31-.62,4.42,4.42,0,0,1,2.23.55,3.8,3.8,0,0,1,1.5,1.62,5.65,5.65,0,0,1,.54,2.58v6.29a1.11,1.11,0,0,1-.31.81A1.07,1.07,0,0,1,40.56,26.51Zm7.33,0a1.09,1.09,0,0,1-1.13-1.13V19.09A2.77,2.77,0,0,0,46.08,17a2.65,2.65,0,0,0-3.66.13,2.84,2.84,0,0,0-.74,2H39.86a5.06,5.06,0,0,1,.61-2.52A4.35,4.35,0,0,1,42.2,15a5.06,5.06,0,0,1,2.54-.62,4.35,4.35,0,0,1,2.22.55,3.76,3.76,0,0,1,1.51,1.62A5.65,5.65,0,0,1,49,19.09v6.29a1.15,1.15,0,0,1-.31.81A1.1,1.1,0,0,1,47.89,26.51Z"/>
    </g>
  </g>
</svg>
