<svg xmlns="http://www.w3.org/2000/svg" viewBox="0 0 60 30">
  <defs>
    <style>
      .cls-1 {
        fill: #8c3a57;
        stroke: #f7a9ae;
        stroke-miterlimit: 10;
        stroke-width: 0.25px;
      }
    </style>
  </defs>
  <title>logo</title>
  <g id="Layer_14" data-name="Layer 14">
    <g>
      <path class="cls-1" d="M9.1,25.93a3.45,3.45,0,0,1-1.72-.42,3.08,3.08,0,0,1-1.17-1.18,3.73,3.73,0,0,1,0-3.44,3.08,3.08,0,0,1,1.17-1.18,3.46,3.46,0,0,1,1.72-.43,3.44,3.44,0,0,1,1.71.43A3.13,3.13,0,0,1,12,20.89a3.73,3.73,0,0,1,0,3.44,3.13,3.13,0,0,1-1.16,1.18A3.44,3.44,0,0,1,9.1,25.93ZM6.26,20.82,9.5,15.41a.77.77,0,0,1,.65-.4.75.75,0,0,1,.49.17.69.69,0,0,1,.24.42.68.68,0,0,1-.1.51l-2,3.3Zm2.82,3.85a1.89,1.89,0,0,0,1-.26,1.84,1.84,0,0,0,.69-.72,2.44,2.44,0,0,0,0-2.15,1.94,1.94,0,0,0-.69-.73,2,2,0,0,0-2,0,1.86,1.86,0,0,0-.69.73,2.53,2.53,0,0,0,0,2.15,1.77,1.77,0,0,0,.69.72A1.88,1.88,0,0,0,9.08,24.67Z"/>
      <path class="cls-1" d="M17.2,25.93a3.44,3.44,0,0,1-1.71-.42,3.08,3.08,0,0,1-1.17-1.18,3.73,3.73,0,0,1,0-3.44,3.08,3.08,0,0,1,1.17-1.18,3.44,3.44,0,0,1,1.71-.43,3.39,3.39,0,0,1,1.71.43,3.06,3.06,0,0,1,1.16,1.18,3.73,3.73,0,0,1,0,3.44,3.06,3.06,0,0,1-1.16,1.18A3.39,3.39,0,0,1,17.2,25.93Zm-2.84-5.11,3.25-5.41a.76.76,0,0,1,.64-.4.73.73,0,0,1,.49.17.7.7,0,0,1,.25.42.69.69,0,0,1-.11.51l-2,3.3Zm2.83,3.85a1.88,1.88,0,0,0,1-.26,1.8,1.8,0,0,0,.7-.72,2.44,2.44,0,0,0,0-2.15,1.91,1.91,0,0,0-1.71-1,1.94,1.94,0,0,0-1,.27,1.84,1.84,0,0,0-.68.73,2.44,2.44,0,0,0,0,2.15,1.75,1.75,0,0,0,.68.72A1.94,1.94,0,0,0,17.19,24.67Z"/>
      <path class="cls-1" d="M25.14,25.93a2.63,2.63,0,0,1-1.81-.65,4,4,0,0,1-1.14-1.87,9.81,9.81,0,0,1-.39-2.95,9.81,9.81,0,0,1,.39-2.95,4,4,0,0,1,1.14-1.87A2.63,2.63,0,0,1,25.14,15a2.66,2.66,0,0,1,1.82.66,4.27,4.27,0,0,1,1.14,1.89,9.69,9.69,0,0,1,.39,2.92,9.69,9.69,0,0,1-.39,2.92A4.27,4.27,0,0,1,27,25.27,2.66,2.66,0,0,1,25.14,25.93Zm0-1.45A1.32,1.32,0,0,0,26.21,24a3.57,3.57,0,0,0,.63-1.43,10.21,10.21,0,0,0,0-4.12A3.69,3.69,0,0,0,26.21,17a1.32,1.32,0,0,0-1.07-.53,1.29,1.29,0,0,0-1.06.52,3.56,3.56,0,0,0-.63,1.44,9.22,9.22,0,0,0-.21,2.07,9.16,9.16,0,0,0,.21,2.07A3.39,3.39,0,0,0,24.09,24,1.29,1.29,0,0,0,25.14,24.48Z"/>
      <path class="cls-1" d="M29.66,28.36a.32.32,0,0,1-.26-.12.37.37,0,0,1-.09-.25.74.74,0,0,1,.17-.48l.32-.44a1.07,1.07,0,0,0,.16-.58.69.69,0,0,0-.11-.39,1.73,1.73,0,0,0-.26-.28,2,2,0,0,1-.25-.31.77.77,0,0,1-.11-.42.85.85,0,0,1,.25-.63,1,1,0,0,1,.69-.25.92.92,0,0,1,.8.37,1.68,1.68,0,0,1,.29,1,3.11,3.11,0,0,1-.15.93,3.9,3.9,0,0,1-.39.91,3.27,3.27,0,0,1-.52.69A.82.82,0,0,1,29.66,28.36Z"/>
      <path class="cls-1" d="M35.18,25.93a2.63,2.63,0,0,1-1.81-.65,4,4,0,0,1-1.14-1.87,9.79,9.79,0,0,1-.4-2.95,9.79,9.79,0,0,1,.4-2.95,4,4,0,0,1,1.14-1.87,2.83,2.83,0,0,1,3.62,0,4.1,4.1,0,0,1,1.14,1.89,9.67,9.67,0,0,1,.4,2.92,9.67,9.67,0,0,1-.4,2.92A4.1,4.1,0,0,1,37,25.27,2.64,2.64,0,0,1,35.18,25.93Zm0-1.45A1.3,1.3,0,0,0,36.24,24a3.57,3.57,0,0,0,.63-1.43,10.21,10.21,0,0,0,0-4.12A3.69,3.69,0,0,0,36.24,17a1.33,1.33,0,0,0-2.12,0,3.56,3.56,0,0,0-.63,1.44,9.22,9.22,0,0,0-.21,2.07,9.16,9.16,0,0,0,.21,2.07A3.51,3.51,0,0,0,34.12,24,1.32,1.32,0,0,0,35.18,24.48Z"/>
      <path class="cls-1" d="M43.17,25.93a2.65,2.65,0,0,1-1.81-.65,4,4,0,0,1-1.14-1.87,9.81,9.81,0,0,1-.39-2.95,9.81,9.81,0,0,1,.39-2.95,4,4,0,0,1,1.14-1.87,2.84,2.84,0,0,1,3.63,0,4.1,4.1,0,0,1,1.14,1.89,9.69,9.69,0,0,1,.39,2.92,9.69,9.69,0,0,1-.39,2.92A4.1,4.1,0,0,1,45,25.27,2.66,2.66,0,0,1,43.17,25.93Zm0-1.45A1.32,1.32,0,0,0,44.24,24a3.57,3.57,0,0,0,.63-1.43,10.21,10.21,0,0,0,0-4.12A3.69,3.69,0,0,0,44.24,17a1.32,1.32,0,0,0-1.07-.53,1.29,1.29,0,0,0-1.06.52,3.56,3.56,0,0,0-.63,1.44,9.22,9.22,0,0,0-.21,2.07,9.16,9.16,0,0,0,.21,2.07A3.39,3.39,0,0,0,42.12,24,1.29,1.29,0,0,0,43.17,24.48Z"/>
      <path class="cls-1" d="M51.17,25.93a2.61,2.61,0,0,1-1.81-.65,4.12,4.12,0,0,1-1.15-1.87,9.81,9.81,0,0,1-.39-2.95,9.81,9.81,0,0,1,.39-2.95,4.12,4.12,0,0,1,1.15-1.87,2.83,2.83,0,0,1,3.62,0,4.1,4.1,0,0,1,1.14,1.89,9.69,9.69,0,0,1,.39,2.92,9.69,9.69,0,0,1-.39,2.92A4.1,4.1,0,0,1,53,25.27,2.64,2.64,0,0,1,51.17,25.93Zm0-1.45A1.3,1.3,0,0,0,52.23,24a3.57,3.57,0,0,0,.63-1.43,10.21,10.21,0,0,0,0-4.12A3.69,3.69,0,0,0,52.23,17a1.34,1.34,0,0,0-2.13,0,3.56,3.56,0,0,0-.63,1.44,9.22,9.22,0,0,0-.21,2.07,9.16,9.16,0,0,0,.21,2.07A3.52,3.52,0,0,0,50.11,24,1.32,1.32,0,0,0,51.17,24.48Z"/>
    </g>
  </g>
</svg>
