<svg xmlns="http://www.w3.org/2000/svg" viewBox="0 0 60 30">
  <defs>
    <style>
      .cls-1 {
        fill: #8c3a57;
        stroke: #f7a9ae;
        stroke-miterlimit: 10;
        stroke-width: 0.25px;
      }
    </style>
  </defs>
  <title>logo</title>
  <g id="Layer_15" data-name="Layer 15">
    <g>
      <path class="cls-1" d="M10.26,25.93a.63.63,0,0,1-.49-.21.67.67,0,0,1-.21-.5V16.68l-1,.44a1.29,1.29,0,0,1-.45.09A.7.7,0,0,1,7.58,17a.66.66,0,0,1-.2-.51.69.69,0,0,1,.11-.4.65.65,0,0,1,.35-.27L10,15.06l.14-.05h.13a.69.69,0,0,1,.51.2.73.73,0,0,1,.19.53v9.49a.67.67,0,0,1-.21.5A.67.67,0,0,1,10.26,25.93Z"/>
      <path class="cls-1" d="M15.55,25.93a.64.64,0,0,1-.49-.21.67.67,0,0,1-.21-.5V16.68l-1,.44a1.29,1.29,0,0,1-.45.09.72.72,0,0,1-.51-.19.69.69,0,0,1-.2-.51.77.77,0,0,1,.11-.4.65.65,0,0,1,.35-.27l2.18-.78.14-.05h.13a.68.68,0,0,1,.51.2.73.73,0,0,1,.19.53v9.49a.67.67,0,0,1-.21.5A.67.67,0,0,1,15.55,25.93Z"/>
      <path class="cls-1" d="M23.8,25.93a.6.6,0,0,1-.48-.21.69.69,0,0,1-.19-.5V23.46H18.46a.65.65,0,0,1-.5-.2.71.71,0,0,1-.2-.45.65.65,0,0,1,.13-.47l5.36-7a1.13,1.13,0,0,1,.26-.23.73.73,0,0,1,.33-.08.61.61,0,0,1,.48.21.77.77,0,0,1,.18.52v6.44h.84a.92.92,0,0,1,.5.14.55.55,0,0,1,.21.5.6.6,0,0,1-.21.46.76.76,0,0,1-.5.19H24.5v1.76a.7.7,0,0,1-.2.5A.62.62,0,0,1,23.8,25.93Zm-4.5-3.37-.37-.39h4.2V16.4l.43.56Z"/>
      <path class="cls-1" d="M27.66,28.36a.31.31,0,0,1-.26-.12.37.37,0,0,1-.09-.25.79.79,0,0,1,.16-.48,5,5,0,0,0,.32-.44,1,1,0,0,0,.17-.58.62.62,0,0,0-.12-.39,1.67,1.67,0,0,0-.25-.28,1.54,1.54,0,0,1-.25-.31.77.77,0,0,1-.11-.42.85.85,0,0,1,.25-.63,1,1,0,0,1,.69-.25.92.92,0,0,1,.8.37,1.68,1.68,0,0,1,.29,1,3.11,3.11,0,0,1-.15.93,4.71,4.71,0,0,1-.39.92,3.15,3.15,0,0,1-.53.68A.78.78,0,0,1,27.66,28.36Z"/>
      <path class="cls-1" d="M33.18,25.93a2.61,2.61,0,0,1-1.81-.65,4.12,4.12,0,0,1-1.15-1.87,9.81,9.81,0,0,1-.39-2.95,9.81,9.81,0,0,1,.39-2.95,4.12,4.12,0,0,1,1.15-1.87,2.83,2.83,0,0,1,3.62,0,4.21,4.21,0,0,1,1.14,1.89,9.69,9.69,0,0,1,.39,2.92,9.69,9.69,0,0,1-.39,2.92A4.1,4.1,0,0,1,35,25.27,2.64,2.64,0,0,1,33.18,25.93Zm0-1.45A1.3,1.3,0,0,0,34.24,24a3.51,3.51,0,0,0,.63-1.43,10.21,10.21,0,0,0,0-4.12A3.69,3.69,0,0,0,34.24,17a1.34,1.34,0,0,0-2.13,0,3.56,3.56,0,0,0-.63,1.44,9.29,9.29,0,0,0-.21,2.07,9.16,9.16,0,0,0,.21,2.07A3.45,3.45,0,0,0,32.12,24,1.32,1.32,0,0,0,33.18,24.48Z"/>
      <path class="cls-1" d="M41.17,25.93a2.63,2.63,0,0,1-1.81-.65,4,4,0,0,1-1.14-1.87,9.81,9.81,0,0,1-.39-2.95,9.81,9.81,0,0,1,.39-2.95,4,4,0,0,1,1.14-1.87,2.83,2.83,0,0,1,3.62,0,4.31,4.31,0,0,1,1.15,1.89,9.69,9.69,0,0,1,.39,2.92,9.69,9.69,0,0,1-.39,2.92A4.2,4.2,0,0,1,43,25.27,2.64,2.64,0,0,1,41.17,25.93Zm0-1.45A1.32,1.32,0,0,0,42.24,24a3.51,3.51,0,0,0,.63-1.43,10.21,10.21,0,0,0,0-4.12A3.69,3.69,0,0,0,42.24,17a1.32,1.32,0,0,0-1.07-.53,1.29,1.29,0,0,0-1.06.52,3.56,3.56,0,0,0-.63,1.44,9.29,9.29,0,0,0-.21,2.07,9.16,9.16,0,0,0,.21,2.07A3.45,3.45,0,0,0,40.11,24,1.32,1.32,0,0,0,41.17,24.48Z"/>
      <path class="cls-1" d="M49.17,25.93a2.66,2.66,0,0,1-1.82-.65,4,4,0,0,1-1.14-1.87,9.81,9.81,0,0,1-.39-2.95,9.81,9.81,0,0,1,.39-2.95,4,4,0,0,1,1.14-1.87,2.84,2.84,0,0,1,3.63,0,4.21,4.21,0,0,1,1.14,1.89,9.69,9.69,0,0,1,.39,2.92,9.69,9.69,0,0,1-.39,2.92A4.1,4.1,0,0,1,51,25.27,2.66,2.66,0,0,1,49.17,25.93Zm0-1.45A1.3,1.3,0,0,0,50.23,24a3.51,3.51,0,0,0,.63-1.43,10.21,10.21,0,0,0,0-4.12A3.69,3.69,0,0,0,50.23,17a1.34,1.34,0,0,0-2.13,0,3.56,3.56,0,0,0-.63,1.44,9.29,9.29,0,0,0-.21,2.07,9.16,9.16,0,0,0,.21,2.07A3.33,3.33,0,0,0,48.11,24,1.31,1.31,0,0,0,49.17,24.48Z"/>
    </g>
  </g>
</svg>
