<?xml version="1.0" encoding="utf-8"?>
<!-- Generator: Adobe Illustrator 22.0.1, SVG Export Plug-In . SVG Version: 6.00 Build 0)  -->
<svg version="1.1" xmlns="http://www.w3.org/2000/svg" xmlns:xlink="http://www.w3.org/1999/xlink" x="0px" y="0px"
	 viewBox="0 0 500 500" style="enable-background:new 0 0 500 500;" xml:space="preserve">
<style type="text/css">
	.st0{display:none;}
	.st1{display:inline;fill:#FFFFFF;stroke:#000000;stroke-miterlimit:10;}
	.st2{display:inline;fill:none;stroke:#000000;stroke-miterlimit:10;}
	.st3{fill:none;stroke:#78C8D6;stroke-width:16;stroke-linecap:round;stroke-miterlimit:10;}
	.st4{fill:none;stroke:#C9412F;stroke-width:24;stroke-linecap:round;stroke-miterlimit:10;}
	.st5{fill:none;stroke:#C9412F;stroke-width:20;stroke-linecap:round;stroke-linejoin:round;stroke-miterlimit:10;}
	.st6{fill:none;stroke:#78C8D6;stroke-width:7;stroke-linecap:round;stroke-miterlimit:10;}
	.st7{fill:none;stroke:#C9412F;stroke-width:12;stroke-linecap:round;stroke-miterlimit:10;}
	.st8{fill:none;stroke:#C9412F;stroke-width:8;stroke-linecap:round;stroke-linejoin:round;stroke-miterlimit:10;}
	.st9{fill:#78C8D6;stroke:#0480A8;stroke-width:0.25;stroke-miterlimit:10;}
	.st10{fill:#78C8D6;}
</style>
<g id="shape" class="st0">
	<circle class="st1" cx="129.1" cy="179.8" r="88.9"/>
	<circle class="st1" cx="369.5" cy="179.8" r="88.9"/>
	<line class="st2" x1="438.7" y1="237.1" x2="249" y2="426.8"/>
	<line class="st2" x1="194.8" y1="119.2" x2="304.7" y2="240.7"/>
</g>
<g id="logo">
	<path id="blue_line" class="st3" d="M246.6,166.6c0,0,72.5,96.1,112.3,95.3"/>
	<path id="heart" class="st4" d="M202.7,120.2c0,0-21.4-46.1-82.5-46.7c-61.1-0.6-96.9,47.9-96,101.2c0.9,53.3,48.4,87.5,91.6,90.9
		s71.2-26.9,71.2-26.9l29.3-32.2l93.4-102.5c0,0,53-60.9,123.2-14.7s33,123.5,33,123.5s-2.5,4.2-7,10.6c-5,7-12.6,16.7-22.4,26.5
		c-18.6,18.6-184.6,184.6-184.6,184.6"/>
	<g id="line">
		<line class="st3" x1="397.4" y1="204.4" x2="397.4" y2="136.1"/>
		<line class="st3" x1="344.2" y1="152.6" x2="344.2" y2="190.7"/>
	</g>
	<g id="arrow">
		<polyline class="st5" points="210.3,59.4 211.1,124.6 145.2,125.2 		"/>
	</g>
</g>
<g id="horizontal">
	<g id="logo_1_">
	</g>
</g>
</svg>
