<?xml version="1.0" encoding="utf-8"?>
<!-- Generator: Adobe Illustrator 22.0.1, SVG Export Plug-In . SVG Version: 6.00 Build 0)  -->
<svg version="1.1" xmlns="http://www.w3.org/2000/svg" xmlns:xlink="http://www.w3.org/1999/xlink" x="0px" y="0px"
	 viewBox="0 0 500 151.8" style="enable-background:new 0 0 500 151.8;" xml:space="preserve">
<style type="text/css">
	.st0{display:none;}
	.st1{display:inline;fill:#FFFFFF;stroke:#000000;stroke-miterlimit:10;}
	.st2{display:inline;fill:none;stroke:#000000;stroke-miterlimit:10;}
	.st3{fill:none;stroke:#78C8D6;stroke-width:16;stroke-linecap:round;stroke-miterlimit:10;}
	.st4{fill:none;stroke:#C9412F;stroke-width:24;stroke-linecap:round;stroke-miterlimit:10;}
	.st5{fill:none;stroke:#C9412F;stroke-width:20;stroke-linecap:round;stroke-linejoin:round;stroke-miterlimit:10;}
	.st6{fill:none;stroke:#78C8D6;stroke-width:7;stroke-linecap:round;stroke-miterlimit:10;}
	.st7{fill:none;stroke:#C9412F;stroke-width:12;stroke-linecap:round;stroke-miterlimit:10;}
	.st8{fill:none;stroke:#C9412F;stroke-width:8;stroke-linecap:round;stroke-linejoin:round;stroke-miterlimit:10;}
	.st9{fill:#78C8D6;stroke:#0480A8;stroke-width:0.25;stroke-miterlimit:10;}
	.st10{fill:#78C8D6;}
	.st11{fill:#8C3A57;}
	.st12{fill:#F7A9AE;}
	.st13{fill:#C9412F;}
	.st14{fill:none;stroke:#000000;stroke-width:2;stroke-linecap:round;stroke-miterlimit:10;}
	.st15{fill:none;stroke:#000000;stroke-width:2;stroke-miterlimit:10;}
</style>
<g id="shape" class="st0">
</g>
<g id="logo">
	<g id="line">
	</g>
	<g id="arrow">
	</g>
</g>
<g id="horizontal">
	<g id="logo_1_">
		<path id="blue_line_1_" class="st6" d="M86,46.4c0,0,22.9,30.3,35.4,30"/>
		<path id="heart_1_" class="st7" d="M73.2,32.7c0,0-6.8-14.5-26-14.7c-19.3-0.2-30.5,15.1-30.3,31.9s15.3,27.6,28.9,28.7
			s22.4-8.5,22.4-8.5L77.5,60l29.5-32.3c0,0,16.7-19.2,38.8-4.6s10.4,39,10.4,39s-0.8,1.3-2.2,3.3c-1.6,2.2-4,5.3-7.1,8.3
			c-5.9,5.9-58.2,58.2-58.2,58.2"/>
		<line class="st6" x1="134.6" y1="59.3" x2="134.6" y2="37.8"/>
		<line class="st6" x1="117.8" y1="43" x2="117.8" y2="55"/>
		<polyline class="st8" points="75.6,14.6 75.8,35.2 55,35.4 		"/>
	</g>
	<g>
		<g>
			<path class="st9" d="M198.2,85.6c-1.1,0-2-0.4-2.8-1.2s-1.1-1.7-1.1-2.9V29.3c0-1.2,0.4-2.1,1.1-2.9c0.8-0.7,1.7-1.1,2.8-1.1
				h13.5c3.8,0,7.1,0.8,10,2.4c2.9,1.6,5.2,3.8,6.8,6.7c1.6,2.8,2.4,6.1,2.4,9.9c0,3.5-0.8,6.6-2.4,9.3c-1.6,2.7-3.9,4.9-6.8,6.4
				c-2.9,1.5-6.2,2.3-10,2.3h-9.6v19.2c0,1.1-0.4,2.1-1.1,2.9C200.3,85.2,199.3,85.6,198.2,85.6z M202.1,54.9h9.6
				c2.3,0,4.3-0.5,6.1-1.4c1.7-0.9,3.1-2.2,4.1-3.8c1-1.6,1.5-3.5,1.5-5.5c0-2.3-0.5-4.3-1.5-6c-1-1.8-2.4-3.1-4.1-4.1
				c-1.8-1-3.8-1.5-6.1-1.5h-9.6V54.9z M229.3,85.6c-0.7,0-1.3-0.2-1.9-0.5c-0.6-0.3-1.1-0.8-1.5-1.5l-13.5-22.4L220,59l12.3,20.4
				c0.9,1.5,1,2.9,0.4,4.2C232,84.9,230.9,85.6,229.3,85.6z"/>
			<path class="st9" d="M247.8,85.6c-1.1,0-2-0.4-2.8-1.2s-1.1-1.7-1.1-2.9V29.3c0-1.2,0.4-2.1,1.1-2.9c0.8-0.7,1.7-1.1,2.8-1.1
				h33.9c1.1,0,2.1,0.3,2.8,1c0.7,0.7,1,1.6,1,2.7c0,1.1-0.4,2-1,2.6c-0.7,0.7-1.6,1-2.8,1h-30v18.8h21.5c1.1,0,2.1,0.3,2.8,1
				s1.1,1.6,1.1,2.7s-0.4,2-1.1,2.7s-1.6,1-2.8,1h-21.5v19.3h30c1.1,0,2.1,0.3,2.8,1c0.7,0.7,1,1.5,1,2.6c0,1.1-0.4,2-1,2.7
				c-0.7,0.7-1.6,1-2.8,1H247.8z"/>
			<path class="st9" d="M319.3,85.6c-1.6,0-2.8-0.8-3.5-2.5l-22-51.8c-0.7-1.8-0.8-3.2-0.2-4.3c0.5-1.1,1.6-1.7,3.2-1.7
				c1.7,0,2.9,0.8,3.6,2.4l19.3,47.7h-0.8l19.6-47.7c0.4-0.9,0.9-1.6,1.4-1.9c0.5-0.3,1.2-0.5,2.1-0.5c1.5,0,2.5,0.6,3.1,1.7
				c0.6,1.1,0.6,2.3,0,3.7L322.8,83c-0.4,0.8-0.8,1.5-1.4,1.9C320.8,85.3,320.1,85.6,319.3,85.6z"/>
			<path class="st9" d="M360.1,85.6c-1.1,0-2-0.4-2.8-1.2s-1.1-1.7-1.1-2.9V29.3c0-1.2,0.4-2.1,1.1-2.9c0.8-0.7,1.7-1.1,2.8-1.1
				c1.1,0,2.1,0.4,2.8,1.1c0.7,0.7,1.1,1.7,1.1,2.9v52.3c0,1.1-0.4,2.1-1.1,2.9C362.2,85.2,361.2,85.6,360.1,85.6z"/>
			<path class="st9" d="M400.5,85.6c-1.6,0-2.8-0.8-3.5-2.5l-22-51.8c-0.7-1.8-0.8-3.2-0.2-4.3c0.5-1.1,1.6-1.7,3.2-1.7
				c1.7,0,2.9,0.8,3.6,2.4l19.3,47.7h-0.8l19.6-47.7c0.4-0.9,0.9-1.6,1.4-1.9c0.5-0.3,1.2-0.5,2.1-0.5c1.5,0,2.5,0.6,3.1,1.7
				c0.6,1.1,0.6,2.3,0,3.7L404,83c-0.4,0.8-0.8,1.5-1.4,1.9C402,85.3,401.3,85.6,400.5,85.6z"/>
			<path class="st9" d="M441.3,85.6c-1.1,0-2-0.4-2.8-1.2s-1.1-1.7-1.1-2.9V29.3c0-1.2,0.4-2.1,1.1-2.9c0.8-0.7,1.7-1.1,2.8-1.1
				h33.9c1.1,0,2.1,0.3,2.8,1c0.7,0.7,1,1.6,1,2.7c0,1.1-0.4,2-1,2.6c-0.7,0.7-1.6,1-2.8,1h-30v18.8h21.5c1.1,0,2.1,0.3,2.8,1
				s1.1,1.6,1.1,2.7s-0.4,2-1.1,2.7s-1.6,1-2.8,1h-21.5v19.3h30c1.1,0,2.1,0.3,2.8,1c0.7,0.7,1,1.5,1,2.6c0,1.1-0.4,2-1,2.7
				c-0.7,0.7-1.6,1-2.8,1H441.3z"/>
		</g>
	</g>
	<g>
		<g>
			<path class="st10" d="M202.6,123.4c-1.2,0-2.2-0.2-3.2-0.6c-1-0.4-1.8-1-2.5-1.7s-1.2-1.6-1.6-2.7c-0.4-1-0.6-2.2-0.6-3.4
				c0-1.2,0.2-2.4,0.6-3.4c0.4-1,0.9-1.9,1.6-2.7s1.5-1.3,2.5-1.7s2-0.6,3.2-0.6s2.2,0.2,3.2,0.6s1.8,1,2.5,1.7
				c0.7,0.7,1.2,1.6,1.6,2.7c0.4,1,0.6,2.1,0.6,3.4c0,1.2-0.2,2.4-0.6,3.4s-0.9,1.9-1.6,2.7c-0.7,0.7-1.5,1.3-2.5,1.7
				C204.8,123.1,203.8,123.4,202.6,123.4z M202.6,121.4c0.9,0,1.7-0.2,2.4-0.5c0.7-0.3,1.4-0.8,1.9-1.4c0.5-0.6,0.9-1.3,1.2-2
				c0.3-0.8,0.4-1.6,0.4-2.5s-0.1-1.8-0.4-2.5c-0.3-0.8-0.7-1.5-1.2-2c-0.5-0.6-1.2-1-1.9-1.4c-0.7-0.3-1.5-0.5-2.4-0.5
				s-1.7,0.2-2.4,0.5c-0.7,0.3-1.4,0.8-1.9,1.4c-0.5,0.6-0.9,1.3-1.2,2c-0.3,0.8-0.4,1.6-0.4,2.5s0.1,1.8,0.4,2.5
				c0.3,0.8,0.7,1.5,1.2,2s1.2,1,1.9,1.4C201,121.2,201.7,121.4,202.6,121.4z"/>
			<path class="st10" d="M216.8,123.1c-0.3,0-0.5-0.1-0.7-0.3c-0.2-0.2-0.3-0.5-0.3-0.8v-14.2c0-0.3,0.1-0.6,0.3-0.8
				c0.2-0.2,0.4-0.3,0.7-0.3h3.6c1,0,1.9,0.2,2.7,0.7c0.8,0.4,1.4,1,1.8,1.8s0.6,1.7,0.6,2.7c0,1-0.2,1.8-0.6,2.5
				c-0.4,0.7-1,1.3-1.8,1.7c-0.8,0.4-1.7,0.6-2.7,0.6h-2.6v5.2c0,0.3-0.1,0.6-0.3,0.8C217.4,123,217.1,123.1,216.8,123.1z
				 M217.9,114.8h2.6c0.6,0,1.1-0.1,1.6-0.4c0.5-0.2,0.8-0.6,1.1-1c0.3-0.4,0.4-0.9,0.4-1.5c0-0.6-0.1-1.2-0.4-1.6
				c-0.3-0.5-0.6-0.8-1.1-1.1c-0.5-0.3-1-0.4-1.6-0.4h-2.6V114.8z M225.1,123.1c-0.2,0-0.4,0-0.5-0.1s-0.3-0.2-0.4-0.4l-3.6-6.1
				l2-0.6l3.3,5.5c0.2,0.4,0.3,0.8,0.1,1.1C225.8,123,225.5,123.1,225.1,123.1z"/>
			<path class="st10" d="M237.1,123.4c-1.1,0-2.1-0.2-3-0.6c-0.9-0.4-1.8-1-2.5-1.8c-0.7-0.8-1.2-1.7-1.6-2.7
				c-0.4-1-0.6-2.1-0.6-3.3c0-1.2,0.2-2.3,0.6-3.3c0.4-1,0.9-1.9,1.6-2.7c0.7-0.8,1.5-1.4,2.4-1.8c0.9-0.4,1.9-0.7,3-0.7
				c1,0,1.9,0.1,2.6,0.4c0.7,0.3,1.5,0.7,2.2,1.4c0.1,0.1,0.2,0.2,0.2,0.3c0.1,0.1,0.1,0.2,0.1,0.3s0,0.2,0,0.3
				c0,0.3-0.1,0.5-0.3,0.7c-0.2,0.2-0.4,0.3-0.7,0.3c-0.3,0-0.5-0.1-0.7-0.3c-0.5-0.4-1-0.8-1.5-1c-0.5-0.2-1.2-0.4-2.1-0.4
				c-0.8,0-1.5,0.2-2.2,0.5c-0.7,0.3-1.3,0.8-1.8,1.4s-0.9,1.3-1.2,2c-0.3,0.8-0.4,1.6-0.4,2.5c0,0.9,0.1,1.7,0.4,2.5
				c0.3,0.8,0.7,1.5,1.2,2s1.1,1,1.8,1.4c0.7,0.3,1.4,0.5,2.2,0.5c0.7,0,1.3-0.1,1.9-0.4c0.6-0.2,1.2-0.6,1.7-1
				c0.2-0.2,0.5-0.3,0.7-0.2c0.2,0,0.4,0.1,0.6,0.3c0.2,0.2,0.2,0.4,0.2,0.7c0,0.1,0,0.3-0.1,0.4c0,0.1-0.1,0.3-0.2,0.4
				c-0.7,0.6-1.5,1.1-2.3,1.4S238,123.4,237.1,123.4z M242.3,120.8l-2-0.4v-3.8h-2.8c-0.3,0-0.5-0.1-0.7-0.3
				c-0.2-0.2-0.3-0.4-0.3-0.7s0.1-0.5,0.3-0.7c0.2-0.2,0.4-0.3,0.7-0.3h3.7c0.3,0,0.6,0.1,0.7,0.3c0.2,0.2,0.3,0.5,0.3,0.8V120.8z"
				/>
			<path class="st10" d="M246.9,123.1c-0.4,0-0.7-0.2-0.9-0.5c-0.2-0.3-0.2-0.7-0.1-1.1l5.6-14.1c0.2-0.5,0.5-0.7,1-0.7
				c0.5,0,0.8,0.2,1,0.7l5.6,14.1c0.1,0.4,0.1,0.7-0.1,1.1c-0.2,0.3-0.5,0.5-0.9,0.5c-0.2,0-0.4-0.1-0.6-0.2
				c-0.2-0.1-0.3-0.3-0.4-0.5l-4.9-12.9h0.6l-5,12.9c-0.1,0.2-0.2,0.4-0.4,0.5C247.2,123.1,247,123.1,246.9,123.1z M247.9,119.5
				l0.8-1.8h7.8l0.8,1.8H247.9z"/>
			<path class="st10" d="M264.5,123.1c-0.3,0-0.5-0.1-0.7-0.3s-0.3-0.5-0.3-0.8v-14.2c0-0.3,0.1-0.6,0.3-0.8
				c0.2-0.2,0.4-0.3,0.7-0.3c0.3,0,0.6,0.1,0.8,0.4l8.7,12.2v-11.5c0-0.3,0.1-0.6,0.3-0.8c0.2-0.2,0.4-0.3,0.7-0.3
				c0.3,0,0.6,0.1,0.7,0.3c0.2,0.2,0.3,0.5,0.3,0.8v14.2c0,0.3-0.1,0.6-0.3,0.8s-0.4,0.3-0.7,0.3c-0.1,0-0.3,0-0.4-0.1
				c-0.2-0.1-0.3-0.2-0.4-0.3l-8.7-12.2v11.5c0,0.3-0.1,0.6-0.3,0.8C265.1,123,264.8,123.1,264.5,123.1z"/>
			<path class="st10" d="M290.8,123.1c-0.3,0-0.5-0.1-0.7-0.3c-0.2-0.2-0.3-0.5-0.3-0.8v-14.2c0-0.3,0.1-0.6,0.3-0.8
				c0.2-0.2,0.4-0.3,0.7-0.3h3.6c1,0,1.9,0.2,2.7,0.7c0.8,0.4,1.4,1,1.8,1.8s0.6,1.7,0.6,2.7c0,1-0.2,1.8-0.6,2.5
				c-0.4,0.7-1,1.3-1.8,1.7s-1.7,0.6-2.7,0.6h-2.6v5.2c0,0.3-0.1,0.6-0.3,0.8C291.4,123,291.1,123.1,290.8,123.1z M291.9,114.8h2.6
				c0.6,0,1.2-0.1,1.6-0.4s0.8-0.6,1.1-1c0.3-0.4,0.4-0.9,0.4-1.5c0-0.6-0.1-1.2-0.4-1.6c-0.3-0.5-0.6-0.8-1.1-1.1
				c-0.5-0.3-1-0.4-1.6-0.4h-2.6V114.8z M299.1,123.1c-0.2,0-0.4,0-0.5-0.1s-0.3-0.2-0.4-0.4l-3.6-6.1l2-0.6l3.3,5.5
				c0.2,0.4,0.3,0.8,0.1,1.1C299.8,123,299.5,123.1,299.1,123.1z"/>
			<path class="st10" d="M305.2,123.1c-0.3,0-0.5-0.1-0.7-0.3c-0.2-0.2-0.3-0.5-0.3-0.8v-14.2c0-0.3,0.1-0.6,0.3-0.8
				c0.2-0.2,0.4-0.3,0.7-0.3h9c0.3,0,0.6,0.1,0.7,0.3c0.2,0.2,0.3,0.4,0.3,0.7c0,0.3-0.1,0.5-0.3,0.7c-0.2,0.2-0.4,0.3-0.7,0.3h-8
				v5.1h5.7c0.3,0,0.6,0.1,0.7,0.3c0.2,0.2,0.3,0.4,0.3,0.7s-0.1,0.5-0.3,0.7c-0.2,0.2-0.4,0.3-0.7,0.3h-5.7v5.2h8
				c0.3,0,0.6,0.1,0.7,0.3c0.2,0.2,0.3,0.4,0.3,0.7c0,0.3-0.1,0.6-0.3,0.7c-0.2,0.2-0.4,0.3-0.7,0.3H305.2z"/>
			<path class="st10" d="M326.9,123.4c-1.1,0-2.1-0.2-3-0.6c-0.9-0.4-1.8-1-2.5-1.8c-0.7-0.8-1.2-1.7-1.6-2.7
				c-0.4-1-0.6-2.1-0.6-3.3c0-1.2,0.2-2.3,0.6-3.3c0.4-1,0.9-1.9,1.6-2.7c0.7-0.8,1.5-1.4,2.4-1.8c0.9-0.4,1.9-0.7,3-0.7
				c1,0,1.9,0.1,2.6,0.4c0.7,0.3,1.5,0.7,2.2,1.4c0.1,0.1,0.2,0.2,0.2,0.3c0.1,0.1,0.1,0.2,0.1,0.3c0,0.1,0,0.2,0,0.3
				c0,0.3-0.1,0.5-0.3,0.7c-0.2,0.2-0.4,0.3-0.7,0.3c-0.3,0-0.5-0.1-0.7-0.3c-0.5-0.4-1-0.8-1.5-1c-0.5-0.2-1.2-0.4-2.1-0.4
				c-0.8,0-1.5,0.2-2.2,0.5s-1.3,0.8-1.8,1.4s-0.9,1.3-1.2,2c-0.3,0.8-0.4,1.6-0.4,2.5c0,0.9,0.1,1.7,0.4,2.5c0.3,0.8,0.7,1.5,1.2,2
				s1.1,1,1.8,1.4s1.4,0.5,2.2,0.5c0.7,0,1.3-0.1,1.9-0.4s1.2-0.6,1.7-1c0.2-0.2,0.5-0.3,0.7-0.2c0.2,0,0.4,0.1,0.6,0.3
				c0.2,0.2,0.2,0.4,0.2,0.7c0,0.1,0,0.3-0.1,0.4s-0.1,0.3-0.2,0.4c-0.7,0.6-1.5,1.1-2.3,1.4C328.7,123.2,327.8,123.4,326.9,123.4z
				 M332.1,120.8l-2-0.4v-3.8h-2.8c-0.3,0-0.5-0.1-0.7-0.3s-0.3-0.4-0.3-0.7s0.1-0.5,0.3-0.7c0.2-0.2,0.4-0.3,0.7-0.3h3.7
				c0.3,0,0.6,0.1,0.7,0.3c0.2,0.2,0.3,0.5,0.3,0.8V120.8z"/>
			<path class="st10" d="M338.3,123.1c-0.3,0-0.5-0.1-0.7-0.3c-0.2-0.2-0.3-0.5-0.3-0.8v-14.2c0-0.3,0.1-0.6,0.3-0.8
				c0.2-0.2,0.4-0.3,0.7-0.3h9c0.3,0,0.6,0.1,0.7,0.3c0.2,0.2,0.3,0.4,0.3,0.7c0,0.3-0.1,0.5-0.3,0.7c-0.2,0.2-0.4,0.3-0.7,0.3h-8
				v5.1h5.7c0.3,0,0.6,0.1,0.7,0.3c0.2,0.2,0.3,0.4,0.3,0.7s-0.1,0.5-0.3,0.7c-0.2,0.2-0.4,0.3-0.7,0.3h-5.7v5.2h8
				c0.3,0,0.6,0.1,0.7,0.3c0.2,0.2,0.3,0.4,0.3,0.7c0,0.3-0.1,0.6-0.3,0.7c-0.2,0.2-0.4,0.3-0.7,0.3H338.3z"/>
			<path class="st10" d="M354.1,123.1c-0.3,0-0.5-0.1-0.7-0.3s-0.3-0.5-0.3-0.8v-14.2c0-0.3,0.1-0.6,0.3-0.8
				c0.2-0.2,0.4-0.3,0.7-0.3c0.3,0,0.6,0.1,0.8,0.4l8.7,12.2v-11.5c0-0.3,0.1-0.6,0.3-0.8c0.2-0.2,0.4-0.3,0.7-0.3
				c0.3,0,0.6,0.1,0.7,0.3c0.2,0.2,0.3,0.5,0.3,0.8v14.2c0,0.3-0.1,0.6-0.3,0.8s-0.4,0.3-0.7,0.3c-0.1,0-0.3,0-0.4-0.1
				c-0.2-0.1-0.3-0.2-0.4-0.3l-8.7-12.2v11.5c0,0.3-0.1,0.6-0.3,0.8C354.7,123,354.4,123.1,354.1,123.1z"/>
			<path class="st10" d="M372.6,123.1c-0.3,0-0.5-0.1-0.7-0.3c-0.2-0.2-0.3-0.5-0.3-0.8v-14.2c0-0.3,0.1-0.6,0.3-0.8
				c0.2-0.2,0.4-0.3,0.7-0.3h9c0.3,0,0.6,0.1,0.7,0.3c0.2,0.2,0.3,0.4,0.3,0.7c0,0.3-0.1,0.5-0.3,0.7c-0.2,0.2-0.4,0.3-0.7,0.3h-8
				v5.1h5.7c0.3,0,0.6,0.1,0.7,0.3c0.2,0.2,0.3,0.4,0.3,0.7s-0.1,0.5-0.3,0.7c-0.2,0.2-0.4,0.3-0.7,0.3h-5.7v5.2h8
				c0.3,0,0.6,0.1,0.7,0.3c0.2,0.2,0.3,0.4,0.3,0.7c0,0.3-0.1,0.6-0.3,0.7c-0.2,0.2-0.4,0.3-0.7,0.3H372.6z"/>
			<path class="st10" d="M388.4,123.1c-0.3,0-0.5-0.1-0.7-0.3c-0.2-0.2-0.3-0.5-0.3-0.8v-14.2c0-0.3,0.1-0.6,0.3-0.8
				c0.2-0.2,0.4-0.3,0.7-0.3h3.6c1,0,1.9,0.2,2.7,0.7c0.8,0.4,1.4,1,1.8,1.8s0.6,1.7,0.6,2.7c0,1-0.2,1.8-0.6,2.5
				c-0.4,0.7-1,1.3-1.8,1.7s-1.7,0.6-2.7,0.6h-2.6v5.2c0,0.3-0.1,0.6-0.3,0.8C388.9,123,388.7,123.1,388.4,123.1z M389.4,114.8h2.6
				c0.6,0,1.2-0.1,1.6-0.4s0.8-0.6,1.1-1c0.3-0.4,0.4-0.9,0.4-1.5c0-0.6-0.1-1.2-0.4-1.6c-0.3-0.5-0.6-0.8-1.1-1.1
				c-0.5-0.3-1-0.4-1.6-0.4h-2.6V114.8z M396.7,123.1c-0.2,0-0.4,0-0.5-0.1s-0.3-0.2-0.4-0.4l-3.6-6.1l2-0.6l3.3,5.5
				c0.2,0.4,0.3,0.8,0.1,1.1C397.4,123,397.1,123.1,396.7,123.1z"/>
			<path class="st10" d="M401.1,123.1c-0.4,0-0.7-0.2-0.9-0.5s-0.2-0.7-0.1-1.1l5.6-14.1c0.2-0.5,0.5-0.7,1-0.7c0.5,0,0.8,0.2,1,0.7
				l5.6,14.1c0.1,0.4,0.1,0.7-0.1,1.1c-0.2,0.3-0.5,0.5-0.9,0.5c-0.2,0-0.4-0.1-0.6-0.2c-0.2-0.1-0.3-0.3-0.4-0.5l-4.9-12.9h0.6
				l-5,12.9c-0.1,0.2-0.2,0.4-0.4,0.5C401.4,123.1,401.2,123.1,401.1,123.1z M402.1,119.5l0.8-1.8h7.8l0.8,1.8H402.1z"/>
			<path class="st10" d="M417,108.8c-0.3,0-0.5-0.1-0.7-0.3c-0.2-0.2-0.3-0.4-0.3-0.7s0.1-0.5,0.3-0.7c0.2-0.2,0.4-0.3,0.7-0.3h10.7
				c0.3,0,0.5,0.1,0.7,0.3c0.2,0.2,0.3,0.4,0.3,0.7s-0.1,0.5-0.3,0.7c-0.2,0.2-0.4,0.3-0.7,0.3H417z M422.3,123.1
				c-0.3,0-0.5-0.1-0.7-0.3s-0.3-0.5-0.3-0.8v-15.3h2.1v15.3c0,0.3-0.1,0.6-0.3,0.8S422.6,123.1,422.3,123.1z"/>
			<path class="st10" d="M433.8,123.1c-0.3,0-0.5-0.1-0.7-0.3c-0.2-0.2-0.3-0.5-0.3-0.8v-14.2c0-0.3,0.1-0.6,0.3-0.8
				c0.2-0.2,0.4-0.3,0.7-0.3c0.3,0,0.6,0.1,0.7,0.3c0.2,0.2,0.3,0.5,0.3,0.8v14.2c0,0.3-0.1,0.6-0.3,0.8
				C434.3,123,434.1,123.1,433.8,123.1z"/>
			<path class="st10" d="M447.5,123.4c-1.2,0-2.2-0.2-3.2-0.6c-1-0.4-1.8-1-2.5-1.7s-1.2-1.6-1.6-2.7s-0.6-2.2-0.6-3.4
				c0-1.2,0.2-2.4,0.6-3.4c0.4-1,0.9-1.9,1.6-2.7s1.5-1.3,2.5-1.7c1-0.4,2-0.6,3.2-0.6c1.2,0,2.2,0.2,3.2,0.6c1,0.4,1.8,1,2.5,1.7
				s1.2,1.6,1.6,2.7c0.4,1,0.6,2.1,0.6,3.4c0,1.2-0.2,2.4-0.6,3.4s-0.9,1.9-1.6,2.7s-1.5,1.3-2.5,1.7
				C449.7,123.1,448.7,123.4,447.5,123.4z M447.5,121.4c0.9,0,1.7-0.2,2.4-0.5c0.7-0.3,1.4-0.8,1.9-1.4c0.5-0.6,0.9-1.3,1.2-2
				s0.4-1.6,0.4-2.5s-0.1-1.8-0.4-2.5s-0.7-1.5-1.2-2c-0.5-0.6-1.2-1-1.9-1.4c-0.7-0.3-1.5-0.5-2.4-0.5c-0.9,0-1.7,0.2-2.4,0.5
				c-0.7,0.3-1.3,0.8-1.9,1.4c-0.5,0.6-0.9,1.3-1.2,2c-0.3,0.8-0.4,1.6-0.4,2.5s0.1,1.8,0.4,2.5c0.3,0.8,0.7,1.5,1.2,2
				s1.2,1,1.9,1.4C445.8,121.2,446.6,121.4,447.5,121.4z"/>
			<path class="st10" d="M461.7,123.1c-0.3,0-0.5-0.1-0.7-0.3s-0.3-0.5-0.3-0.8v-14.2c0-0.3,0.1-0.6,0.3-0.8
				c0.2-0.2,0.4-0.3,0.7-0.3c0.3,0,0.6,0.1,0.8,0.4l8.7,12.2v-11.5c0-0.3,0.1-0.6,0.3-0.8c0.2-0.2,0.4-0.3,0.7-0.3
				c0.3,0,0.6,0.1,0.7,0.3c0.2,0.2,0.3,0.5,0.3,0.8v14.2c0,0.3-0.1,0.6-0.3,0.8s-0.4,0.3-0.7,0.3c-0.1,0-0.3,0-0.4-0.1
				c-0.2-0.1-0.3-0.2-0.4-0.3l-8.7-12.2v11.5c0,0.3-0.1,0.6-0.3,0.8C462.2,123,462,123.1,461.7,123.1z"/>
		</g>
	</g>
</g>
<g id="heart_2_">
	<g id="fill">
	</g>
	<g id="outline">
	</g>
</g>
<g id="Layer_10">
</g>
</svg>
