<?xml version="1.0" encoding="utf-8"?>
<!-- Generator: Adobe Illustrator 22.0.1, SVG Export Plug-In . SVG Version: 6.00 Build 0)  -->
<svg version="1.1" xmlns="http://www.w3.org/2000/svg" xmlns:xlink="http://www.w3.org/1999/xlink" x="0px" y="0px"
	 viewBox="0 0 62.4 89.8" style="enable-background:new 0 0 62.4 89.8;" xml:space="preserve">
<style type="text/css">
	.st0{display:none;}
	.st1{display:inline;fill:#FFFFFF;stroke:#000000;stroke-miterlimit:10;}
	.st2{display:inline;fill:none;stroke:#000000;stroke-miterlimit:10;}
	.st3{fill:none;stroke:#78C8D6;stroke-width:16;stroke-linecap:round;stroke-miterlimit:10;}
	.st4{fill:none;stroke:#C9412F;stroke-width:24;stroke-linecap:round;stroke-miterlimit:10;}
	.st5{fill:none;stroke:#C9412F;stroke-width:20;stroke-linecap:round;stroke-linejoin:round;stroke-miterlimit:10;}
	.st6{fill:none;stroke:#78C8D6;stroke-width:7;stroke-linecap:round;stroke-miterlimit:10;}
	.st7{fill:none;stroke:#C9412F;stroke-width:12;stroke-linecap:round;stroke-miterlimit:10;}
	.st8{fill:none;stroke:#C9412F;stroke-width:8;stroke-linecap:round;stroke-linejoin:round;stroke-miterlimit:10;}
	.st9{fill:#78C8D6;stroke:#0480A8;stroke-width:0.25;stroke-miterlimit:10;}
	.st10{fill:#78C8D6;}
	.st11{fill:#8E8E8E;}
	.st12{fill:#F0EFEF;}
	.st13{fill:#C9412F;}
	.st14{fill:#C4C4C4;}
	.st15{fill:none;stroke:#000000;stroke-width:2;stroke-linecap:round;stroke-miterlimit:10;}
	.st16{fill:none;stroke:#000000;stroke-width:2;stroke-miterlimit:10;}
	.st17{fill:none;stroke:#78C8D6;stroke-width:4;stroke-linecap:round;stroke-miterlimit:10;}
	.st18{fill:#7F7F7F;}
	.st19{fill:#8C3A57;}
	.st20{fill:#F7A9AE;}
	.st21{fill:#8C3A57;stroke:#F7A9AE;stroke-width:0.25;stroke-miterlimit:10;}
</style>
<g id="shape" class="st0">
</g>
<g id="logo">
	<g id="line">
	</g>
	<g id="arrow">
	</g>
</g>
<g id="horizontal">
	<g id="logo_1_">
	</g>
</g>
<g id="decellularize">
	<g id="fill">
	</g>
	<g id="Layer_17">
	</g>
	<g id="outline">
	</g>
</g>
<g id="scaffold">
	<path class="st18" d="M33.4,16.7c0.2-0.2,0.1-0.6-0.1-0.8c-0.7-0.5-1.7-1.7-1.4-4.3c0.4-3.9-3.2-2.1-3.6-1.3
		c-0.3,0.7-0.8,3.1-1,4.2c-0.1,0.4-0.6,0.6-0.9,0.3c-0.3-0.4-0.7-1.2-0.9-2.9c-0.3-3.2-3.2-1.3-4.1-0.6c-0.2,0.1-0.2,0.3-0.2,0.5
		l1.2,5.6c0,0-0.1,1.8-1.1,0.6c-1-1.2-3-4.6-3.5-4.5c-0.4,0.1-1.8,1-2.5,1.4c-0.2,0.2-0.3,0.5-0.2,0.7c0.3,0.5,0.9,1.5,1.5,2.4
		c0.9,1.3,3.1,4.2,3.1,7s-0.6,7.5,1.1,9.3l1.2,1.3c0.2,0.3,0.7,0.2,0.8-0.1c1.1-2.1,4.7-9.1,5.3-11C28.5,22.5,32.1,18.1,33.4,16.7z"
		/>
	<path class="st12" d="M18.1,27.4c-0.4-0.4-4.8-7.6-4.8-7.6S6.5,21.4,6,24.1c-0.5,2.7,6.7,11.9,6.7,11.9s2.1-3.1,3.1-4.1
		c1-1,2.9-2.5,2.9-2.5L18.1,27.4z"/>
	<path class="st12" d="M39.9,15.1c0,0,0,5.3,3.8,7.4s2.1-3.4,2-3.7c-0.1-0.3-2.1-4.2-3.4-4.2C41.1,14.6,39.9,15.1,39.9,15.1z"/>
	<path class="st14" d="M39,13.7c0,0-7.9,2.3-11.3,12.7s-5.1,11-5.1,11s-2.8-5.2-2.8-6.9s0-1.1,0-1.1s-4.9,2.5-6.5,9.3
		s-3,12.1-0.3,17.7s4.7,10.2,10.3,14.3c5.6,4.1,11.7,7.8,15.7,8.9s10.5,1,12.2-2.1c1.7-3.1,3.7-8.6,3.8-17.4s0.3-14.5-3.2-20.7
		c-3.5-6.2-5.9-9.8-9.8-11.4l-1.8-0.9l4.4-3.5C44.7,23.6,39.5,20,39,13.7z"/>
	<path class="st15" d="M16.5,39.5c0,0,5.1-1.4,6.6-4.7c1.5-3.3,6.2-15.3,10-17.7s9.5-6.5,12.2-1.6s1.6,6.9,1.1,7.2
		c-0.5,0.3-6.1,3.4-8.3,6.8s-6.2,9.9-4.6,14.3c1.6,4.5,2.5,4.1,2.9,7.2c0.4,3.1,0.4,5.4,0.1,6.1s-0.3,0.8-0.3,0.8"/>
	<path class="st16" d="M40,13.2c0,0-1,5.9,5.5,10.1"/>
	<path class="st16" d="M40.8,26.7c0,0,6.4,1.9,10.1,7.9s6.7,12.2,5.9,21.3s-1.5,14.7-2.5,16.5c-1,1.8-2.3,6.2-11.6,5.5
		S18.1,66.9,14.9,61.1s-7-10.5-3.5-21.5s8.1-10.8,8.1-10.8"/>
	<path class="st16" d="M34.4,16.3c-0.5-0.5-2.7-1.2-2.5-3.8c0.2-2.7,0.6-3-1.2-3.3c-1.7-0.3-3.1,0.1-3,3.9l-0.6,1.6
		c0,0-1.3,1.7-1.7-3.8c0,0,0.5-2.5-3.6-0.4c0,0-1.2-0.7-0.5,2.6c0.8,3.3,1.1,4.1,1.1,4.1s0,2.5-2.5-1.1s-2.4-2.9-2.4-2.9
		s-3.1,0.8-2.8,2c0.3,1.1,4.1,4.8,4.2,8.1s-0.9,6.8,2.4,12.2l0.5,1.1"/>
	<path class="st16" d="M12.9,37.5c0,0-5.6-5.5-8-10.7c0,0-1.2-1.5,0.3-2.8s5.9-6.2,7.7-3.2s5.4,7.6,5.9,7.4"/>
</g>
<g id="repop">
</g>
<g id="Layer_11">
</g>
<g id="Layer_12">
</g>
<g id="Layer_13">
</g>
<g id="Layer_14">
</g>
<g id="Layer_15">
</g>
</svg>
